<?xml version="1.0" standalone="no"?>
<!DOCTYPE svg PUBLIC "-//W3C//DTD SVG 20010904//EN"
 "http://www.w3.org/TR/2001/REC-SVG-20010904/DTD/svg10.dtd">
<svg version="1.0" xmlns="http://www.w3.org/2000/svg"
 width="200.000000pt" height="120.000000pt" viewBox="0 0 200.000000 120.000000"
 preserveAspectRatio="xMidYMid meet">

<g transform="translate(0.000000,120.000000) scale(0.100000,-0.100000)"
fill="#000000" stroke="none">
<path d="M310 595 l0 -525 695 0 695 0 0 525 0 525 -695 0 -695 0 0 -525z
m490 483 c8 -17 26 -38 40 -46 l25 -14 -21 18 c-32 28 -48 63 -32 69 7 3 207
4 443 3 l430 -3 3 -507 2 -508 -680 0 -680 0 0 510 0 510 228 0 227 0 15 -32z"/>
<path d="M1645 1040 c3 -5 8 -10 11 -10 2 0 4 5 4 10 0 6 -5 10 -11 10 -5 0
-7 -4 -4 -10z"/>
<path d="M1596 1025 c-11 -8 -16 -15 -10 -15 5 0 18 7 28 15 11 8 16 15 10 15
-5 0 -18 -7 -28 -15z"/>
<path d="M1480 976 c0 -19 -4 -38 -10 -41 -5 -3 -9 -21 -9 -38 1 -20 3 -24 6
-12 2 11 8 29 13 40 12 29 18 85 8 85 -4 0 -8 -15 -8 -34z"/>
<path d="M1548 1003 c7 -3 16 -2 19 1 4 3 -2 6 -13 5 -11 0 -14 -3 -6 -6z"/>
<path d="M1602 998 c-5 -7 -12 -28 -14 -45 -4 -27 -2 -31 10 -21 11 10 17 9
27 -6 8 -10 12 -26 10 -37 -2 -10 0 -19 5 -19 5 0 8 22 7 48 -2 40 -4 46 -14
33 -10 -15 -12 -14 -18 2 -4 9 -5 26 -2 37 6 23 3 25 -11 8z"/>
<path d="M958 993 c7 -3 16 -2 19 1 4 3 -2 6 -13 5 -11 0 -14 -3 -6 -6z"/>
<path d="M1451 983 c7 -10 15 -20 16 -22 2 -2 3 3 3 11 0 9 -7 19 -16 22 -15
6 -15 4 -3 -11z"/>
<path d="M1522 984 c10 -10 20 -15 24 -12 3 4 -5 12 -18 18 -22 12 -22 12 -6
-6z"/>
<path d="M1000 983 c59 -22 65 -69 14 -119 -28 -29 -33 -39 -23 -50 6 -8 17
-14 23 -14 6 0 3 5 -7 11 -18 10 -17 13 11 43 46 47 53 75 29 108 -12 16 -30
28 -41 27 -15 0 -17 -2 -6 -6z"/>
<path d="M1138 963 c23 -2 59 -2 80 0 20 2 1 4 -43 4 -44 0 -61 -2 -37 -4z"/>
<path d="M1520 940 c-6 -11 -17 -20 -24 -20 -17 0 -13 -35 7 -58 14 -16 15
-21 2 -45 -7 -15 -10 -29 -6 -31 4 -3 13 11 19 30 9 30 8 37 -9 53 -18 17 -18
18 6 51 26 35 28 40 20 40 -2 0 -9 -9 -15 -20z"/>
<path d="M1100 926 c0 -8 5 -18 12 -22 8 -5 9 -2 5 9 -5 14 0 17 31 17 20 0
54 -5 76 -9 21 -5 48 -6 59 -2 14 5 -5 10 -58 14 -111 10 -125 9 -125 -7z"/>
<path d="M1536 914 c-3 -8 1 -26 10 -39 12 -18 12 -24 2 -28 -7 -2 -10 -8 -5
-12 4 -5 12 -4 19 3 8 8 7 17 -5 36 -9 14 -14 32 -11 40 3 9 4 16 1 16 -3 0
-8 -7 -11 -16z"/>
<path d="M1158 903 c7 -3 16 -2 19 1 4 3 -2 6 -13 5 -11 0 -14 -3 -6 -6z"/>
<path d="M1611 874 c0 -11 3 -14 6 -6 3 7 2 16 -1 19 -3 4 -6 -2 -5 -13z"/>
<path d="M1450 840 c0 -11 4 -20 9 -20 5 0 7 9 4 20 -3 11 -7 20 -9 20 -2 0
-4 -9 -4 -20z"/>
<path d="M1641 844 c0 -11 3 -14 6 -6 3 7 2 16 -1 19 -3 4 -6 -2 -5 -13z"/>
<path d="M1421 834 c0 -11 3 -14 6 -6 3 7 2 16 -1 19 -3 4 -6 -2 -5 -13z"/>
<path d="M1603 804 c-3 -8 2 -23 11 -32 10 -10 16 -12 16 -4 0 7 -5 12 -11 12
-6 0 -9 9 -6 20 6 24 -1 27 -10 4z"/>
<path d="M1049 802 c8 -6 11 -18 7 -30 -4 -11 -2 -23 3 -27 6 -3 8 0 5 8 -3 8
2 22 11 31 9 9 12 16 7 16 -6 0 -19 3 -29 6 -13 4 -15 3 -4 -4z"/>
<path d="M1150 800 c0 -5 7 -10 15 -10 8 0 15 -9 15 -19 0 -28 10 -51 23 -51
7 0 7 4 -1 12 -7 7 -12 21 -12 33 0 21 -17 45 -32 45 -4 0 -8 -4 -8 -10z"/>
<path d="M1551 776 c-1 -29 2 -37 10 -29 8 8 8 19 1 40 -10 28 -10 28 -11 -11z"/>
<path d="M1461 754 c0 -11 3 -14 6 -6 3 7 2 16 -1 19 -3 4 -6 -2 -5 -13z"/>
<path d="M1235 730 c-3 -16 -2 -37 4 -47 8 -14 10 -8 11 30 0 54 -5 60 -15 17z"/>
<path d="M1517 753 c-12 -11 -7 -47 9 -68 16 -19 16 -19 8 5 -4 14 -7 35 -6
48 2 23 0 26 -11 15z"/>
<path d="M1079 738 c-6 -21 -5 -38 1 -38 5 0 11 -12 13 -27 2 -16 3 -9 2 14
-2 36 1 43 19 46 16 3 15 5 -6 6 -16 0 -28 0 -29 -1z"/>
<path d="M1650 731 c0 -6 4 -13 10 -16 6 -3 7 1 4 9 -7 18 -14 21 -14 7z"/>
<path d="M1560 721 c0 -6 4 -13 10 -16 6 -3 7 1 4 9 -7 18 -14 21 -14 7z"/>
<path d="M985 685 c-39 -17 -21 -18 25 0 19 7 28 14 20 14 -8 0 -28 -6 -45
-14z"/>
<path d="M1292 675 c0 -16 2 -22 5 -12 2 9 2 23 0 30 -3 6 -5 -1 -5 -18z"/>
<path d="M1625 642 c0 -15 -5 -26 -11 -25 -7 1 -10 -6 -7 -17 3 -11 10 -20 15
-20 6 0 8 7 5 15 -4 8 -2 17 3 20 12 7 13 42 2 49 -4 2 -8 -8 -7 -22z"/>
<path d="M822 644 c-14 -16 -5 -18 17 -5 7 5 9 11 5 14 -5 3 -15 -1 -22 -9z"/>
<path d="M838 624 c-65 -33 -95 -56 -42 -32 20 9 30 9 47 -2 20 -12 21 -12 8
4 -16 19 -18 18 34 44 22 12 36 21 30 21 -5 0 -40 -16 -77 -35z"/>
<path d="M1104 604 c-18 -14 -18 -14 6 -3 31 14 36 19 24 19 -6 0 -19 -7 -30
-16z"/>
<path d="M1189 593 c-6 -17 -6 -34 1 -52 l10 -26 -5 27 c-3 15 -1 38 5 52 5
14 7 26 5 26 -3 0 -10 -12 -16 -27z"/>
<path d="M1271 597 c19 -12 38 -35 43 -50 8 -22 6 -31 -15 -54 l-24 -27 35 27
c66 51 82 60 118 68 35 6 35 7 7 8 -16 0 -45 -8 -63 -19 -39 -24 -42 -24 -42
-6 0 16 -65 76 -82 76 -6 0 4 -10 23 -23z"/>
<path d="M725 567 c-11 -7 -25 -18 -31 -26 -12 -16 -30 1 -19 19 3 6 2 10 -3
10 -14 0 -23 -43 -10 -51 7 -5 3 -12 -11 -20 -11 -8 -21 -18 -21 -22 0 -5 16
5 37 23 l36 32 109 -4 c64 -3 112 0 115 5 4 6 -5 8 -21 5 -14 -3 -26 -2 -26 1
0 3 -29 4 -65 3 -60 -3 -64 -2 -60 17 4 24 -1 25 -30 8z"/>
<path d="M1491 565 c8 -7 133 -45 137 -41 2 2 -25 13 -59 25 -61 20 -87 26
-78 16z"/>
<path d="M826 504 c-11 -8 -16 -14 -10 -14 13 0 39 18 34 24 -3 2 -14 -2 -24
-10z"/>
<path d="M442 365 c0 -16 2 -22 5 -12 2 9 2 23 0 30 -3 6 -5 -1 -5 -18z"/>
<path d="M570 376 c0 -2 8 -10 18 -17 15 -13 16 -12 3 4 -13 16 -21 21 -21 13z"/>
<path d="M631 364 c0 -11 3 -14 6 -6 3 7 2 16 -1 19 -3 4 -6 -2 -5 -13z"/>
<path d="M710 376 c0 -2 8 -10 18 -17 15 -13 16 -12 3 4 -13 16 -21 21 -21 13z"/>
<path d="M756 371 c-4 -7 -5 -15 -2 -18 9 -9 19 4 14 18 -4 11 -6 11 -12 0z"/>
<path d="M875 360 c3 -5 8 -10 11 -10 2 0 4 5 4 10 0 6 -5 10 -11 10 -5 0 -7
-4 -4 -10z"/>
<path d="M476 298 c10 -14 21 -24 23 -22 3 3 -6 15 -18 27 l-24 22 19 -27z"/>
<path d="M955 300 c10 -11 20 -20 22 -20 2 0 -1 9 -7 20 -6 11 -16 20 -22 20
-6 0 -3 -9 7 -20z"/>
<path d="M1005 296 c0 -13 3 -22 8 -19 4 2 7 13 7 24 0 10 -3 19 -7 19 -5 0
-8 -11 -8 -24z"/>
<path d="M612 290 c0 -14 2 -19 5 -12 2 6 2 18 0 25 -3 6 -5 1 -5 -13z"/>
<path d="M811 294 c0 -11 3 -14 6 -6 3 7 2 16 -1 19 -3 4 -6 -2 -5 -13z"/>
<path d="M837 303 c-10 -9 -9 -23 1 -23 5 0 9 7 9 15 0 17 -1 18 -10 8z"/>
<path d="M886 297 c3 -10 9 -15 12 -12 3 3 0 11 -7 18 -10 9 -11 8 -5 -6z"/>
<path d="M1042 290 c0 -14 2 -19 5 -12 2 6 2 18 0 25 -3 6 -5 1 -5 -13z"/>
<path d="M1227 303 c-10 -9 -9 -23 1 -23 5 0 9 7 9 15 0 17 -1 18 -10 8z"/>
<path d="M1302 290 c0 -14 2 -19 5 -12 2 6 2 18 0 25 -3 6 -5 1 -5 -13z"/>
<path d="M1341 294 c0 -11 3 -14 6 -6 3 7 2 16 -1 19 -3 4 -6 -2 -5 -13z"/>
<path d="M1452 290 c0 -14 2 -19 5 -12 2 6 2 18 0 25 -3 6 -5 1 -5 -13z"/>
<path d="M1510 295 c0 -8 5 -15 10 -15 6 0 10 7 10 15 0 8 -4 15 -10 15 -5 0
-10 -7 -10 -15z"/>
<path d="M1211 224 c0 -11 3 -14 6 -6 3 7 2 16 -1 19 -3 4 -6 -2 -5 -13z"/>
<path d="M596 213 c-6 -14 -5 -15 5 -6 7 7 10 15 7 18 -3 3 -9 -2 -12 -12z"/>
</g>
</svg>
